<?xml version="1.0" encoding="UTF-8"?>
<svg id="Layer_1" data-name="Layer 1" xmlns="http://www.w3.org/2000/svg" xmlns:xlink="http://www.w3.org/1999/xlink" viewBox="0 0 288 232.29">
  <defs>
    <style>
      .cls-1 { fill: #0d76bc; opacity: .58; }
      .cls-2 { fill: #ef6a54; opacity: .84; }
      .cls-3 { fill: url(#linear-gradient); opacity: .8; }
    </style>
    <linearGradient id="linear-gradient" x1="19.81" y1="116.15" x2="140.42" y2="116.15" gradientUnits="userSpaceOnUse">
      <stop offset="0" stop-color="#5eaeeb" stop-opacity=".78"/>
      <stop offset=".44" stop-color="#5bace9" stop-opacity=".79"/>
      <stop offset=".62" stop-color="#51a5e4" stop-opacity=".81"/>
      <stop offset=".76" stop-color="#409bdc" stop-opacity=".85"/>
      <stop offset=".87" stop-color="#288bd0" stop-opacity=".9"/>
      <stop offset=".95" stop-color="#137ec6" stop-opacity=".95"/>
      <stop offset="1" stop-color="#0071bc"/>
    </linearGradient>
  </defs>
  <polygon class="cls-3" points="140.42 140.06 108.29 203.64 64.04 116.14 19.81 28.65 84.08 28.65 128.32 116.14 140.42 140.06"/>
  <polygon class="cls-1" points="210.63 140.06 178.5 203.64 134.25 116.14 90.02 28.65 154.3 28.65 198.53 116.14 210.63 140.06"/>
  <path class="cls-2" d="M231.44,71.89c4.18,4.25,6.43,9.94,6.43,15.83s-2.26,11.7-6.43,15.98c-4.12,4.13-9.64,6.41-15.43,6.41s-11.31-2.28-15.44-6.54c-4.17-4.15-6.41-9.79-6.41-15.85s2.24-11.58,6.41-15.83c2.97-3.16,6.81-5.22,10.99-6.11,1.44-.28,2.96-.43,4.45-.43s3,.15,4.45.43c4.18.89,8.02,2.96,10.98,6.11Z"/>
  <path class="cls-2" d="M268.19,28.65l-16.08,31.8-.12.24-.07.12h-31.5l-3.89.15h-.03c-.98,0-1.91-.11-2.83-.27h-.03c-6.41-1.37-11.25-7.2-11.25-14.2,0-7.97,6.33-14.47,14.13-14.47,3.33,0,6.38,1.18,8.8,3.15t.01.01c.72.69,1.42,1.47,2.1,2.35,1.51,1.98,2.26,3.74,2.64,5.07.13.56.37,1.4.46,2.01.08.61.12,1.24.12,1.87h6.37c0-7.54-3.9-14.15-9.74-17.85h40.89Z"/>
</svg>
