<?xml version="1.0" encoding="UTF-8"?>
<svg xmlns="http://www.w3.org/2000/svg" viewBox="0 0 1191.89 330.31">
  <defs>
    <style>
      .cls-1 {
        isolation: isolate;
      }

      .cls-2 {
        fill: #2d3f6b;
      }

      .cls-3 {
        fill: #4e7f98;
        mix-blend-mode: darken;
        stroke: #fff;
        stroke-miterlimit: 10;
        stroke-width: .25px;
      }
    </style>
  </defs>
  <g class="cls-1">
    <g id="Layer_1" data-name="Layer 1">
      <g>
        <path class="cls-2" d="M226.8,96.99c-4.49-1.32-9.76,1.35-11.23,6.07l-33.09,102.5-24.07-51.84c-1.48-2.66-4.49-4.69-8.25-4.69s-6.74,1.35-8.28,4.69l-24.78,51.84-32.32-102.5c-1.51-4.72-6.77-7.38-12-6.07-4.53,1.35-7.54,6.07-6.04,10.07l38.33,123.96c1.51,3.35,4.49,5.35,8.25,6.01h.77c3.79,0,7.54-1.97,9.02-4.69l27.06-55.84,26.29,55.84c1.51,3.35,5.26,4.69,9.02,4.69,4.53-.66,7.54-2.66,8.28-6.01l39.87-123.27c1.48-4.69-1.51-9.42-6.81-10.76Z"/>
        <path class="cls-2" d="M366.72,226.41l-49.56-125.27c-1.34-2.69-4.69-5.38-8.04-5.38s-6.7,2.69-8.04,5.38l-23.44,58.95-26.15,66.33c-2,4.69,0,9.39,4.69,10.76,4.04,1.97,8.73,0,10.76-4.72l24.12-60.29h36.14l24.12,60.29c1.35,3.35,4.04,5.35,7.38,5.35,1.34,0,2,0,3.35-.63,4.04-1.38,6.7-6.07,4.66-10.76ZM297.73,155.38l11.39-28.13,11.39,28.13h-22.78Z"/>
        <path class="cls-2" d="M509.83,218.62l-20.96-33.1c6.04-1.97,10.3-4.27,14.97-8.3,10.07-8.67,15.45-20.74,15.45-33.48s-5.38-24.78-15.45-33.51c-10.01-8.73-22.75-13.39-36.83-13.39h-37.51c-4.66,0-8.73,3.35-8.73,8.04v122.85c0,3.46,1.86,6.75,4.98,8.24,6.08,2.91,12.44-1.92,12.44-7.8v-37.54l32.59-1.09,29.4,43.95c1.35,2.03,4.04,3.35,6.73,3.35,1.32,0,3.35-.63,4.66-1.97,3.78-2.57,4.46-6.69,1.87-10.81-.27-.44-3.33-5.01-3.6-5.44ZM467,173.86h-28.82v-60.29h28.82c10.04,0,18.77,3.38,25.44,9.39,6.73,5.38,10.07,12.73,10.07,20.77s-3.35,15.42-10.07,20.77c-6.67,6.01-15.39,9.36-25.44,9.36Z"/>
        <path class="cls-2" d="M870.77,211.05c-8.7,6.07-19.43,9.39-30.13,9.39-29.5,0-53.6-24.12-53.6-53.6s24.09-53.6,53.6-53.6c10.7,0,21.43,3.35,30.13,9.39,4.01,2.69,9.39,1.32,11.42-2.69,2.66-3.35,1.97-8.73-2.03-11.39-11.39-8.04-25.47-12.08-39.52-12.08-38.86,0-70.36,31.51-70.36,70.36s31.5,70.36,70.36,70.36c14.05,0,28.13-4.01,39.52-12.05,4-2.72,4.69-8.04,2.03-11.39-2.03-4.04-7.41-5.38-11.42-2.72Z"/>
        <path class="cls-2" d="M1005.16,95.8c-39.52,0-71.05,31.48-71.05,71.02s31.54,71.05,71.05,71.05,71.02-32.16,71.02-71.05-32.16-71.02-71.02-71.02ZM1005.16,221.11c-30.16,0-54.28-24.12-54.28-54.28s24.12-54.28,54.28-54.28,54.25,24.15,54.25,54.28-24.78,54.28-54.25,54.28Z"/>
        <path class="cls-3" d="M1115.97,217.37c-5.8,0-10.28,4.51-10.28,10.25s4.48,10.25,10.28,10.25c5.14,0,9.6-4.48,9.6-10.25s-4.45-10.25-9.6-10.25Z"/>
        <path class="cls-3" d="M731.23,224.05c-1.03,1.98-2.67,3.3-4.99,4.19-6.17,2.52-14.28,4.03-21.26,2.85l-1.4-.25c-1.34,1.94-2.81,3.83-4.41,5.64-3.79,4.99-8.45,9.63-13.84,13.77-10.59,7.78-23.31,12.01-37.44,12.01-16.25,0-32.49-7.06-43.79-18.36-11.99-12.01-19.05-28.26-19.05-44.5s7.06-31.78,18.36-43.79l.69-.71c4.26-4.23,9.18-7.75,14.84-11.3,0,0-.13-.02-.49-.18-1.47-.69-2.81-1.67-3.86-2.94-6.89-8.18-10.5-18.05-10.5-28.66,0-12.01,4.95-23.31,12.72-31.09,9.18-8.47,19.77-12.7,31.06-12.7,12.01,0,22.62,4.23,31.09,12.7,8.18,7.51,12.41,18.32,12.7,29.86.11,5.04-3.88,9.58-8.91,9.69-5.08.13-8.74-3.43-8.74-8.47,0-7.06-2.83-14.13-7.75-18.36-5.66-4.95-11.32-7.89-18.38-7.78-7.13.13-9.65,1-15.76,5.93l-1.89,1.85c-4.23,4.23-7.06,11.3-7.06,18.36s2.83,12.72,7.06,17.65c.62.62,1.27,1.2,1.92,1.74,4.26,3.52,7.58,5.06,13.73,5.42,3.14.25,4.7.16,7.13.27h.07c5.21-.22,9.34,4.52,9.11,9.78-.22,5.33-3.63,8.42-8.87,8.53-2.07.04-4.55-.04-6.77-.16-.87-.07-1.76-.07-2.65-.02-9.72.67-16.4,3.92-24.51,10.81l-2.56,2.5c-8.47,7.75-12.72,19.05-12.72,31.06s4.26,23.31,12.72,31.8c7.78,7.75,19.08,12.7,31.06,12.7,10.61,0,19.08-2.83,26.85-8.47,4.39-3.74,8.2-8.07,11.45-13.44-3.57-3.41-6.37-6.62-8.87-10.52-1.49-2.34-2.87-4.95-4.23-7.98-2.45-5.04-6.2-9.69-11.41-12.86-.87-.51-1.81-.89-2.76-1.18l-3.21-.96c-.53-.16-1.09-.29-1.65-.33-3.94-.42-8.11.85-11.59,1.58-2.21.36-4.52.31-5.24.2-3.45-.58-4.99-2.23-6.02-5.66-.65-2.12-.67-3.28-.27-5.08.11-.53.25-1.11.42-1.78,1.16-2.27,2.7-3.41,5.33-4.41,6.17-2.54,13.37-2.76,20.32-1.58,4.19.71,9,1.92,11.68,3.1,10.54,5.35,16.38,13.08,21.15,23.2l1.18,2.32c.2.47.42.91.67,1.36,3.03,5.99,7.09,8.62,10.87,9.94,1.78.74,3.39,1.29,5.46,1.63,4.19.71,7.84.51,12.06-1.16,2.03-.4,3.48-.56,4.88-.29,3.34.65,5.21,2.07,6.28,4.3.18.36.33.76.47,1.16.33,2.18,1.09,4.35-.49,7.06Z"/>
      </g>
    </g>
  </g>
</svg>